<?xml version="1.0" encoding="UTF-8"?>
<svg width="14px" height="14px" viewBox="0 0 14 14" version="1.1" xmlns="http://www.w3.org/2000/svg" xmlns:xlink="http://www.w3.org/1999/xlink">
    <!-- Generator: Sketch 55.2 (78181) - https://sketchapp.com -->
    <title>🎨 Icon color</title>
    <desc>Created with Sketch.</desc>
    <g id="Page-1" stroke="none" stroke-width="1" fill="none" fill-rule="evenodd">
        <g id="Production-order" transform="translate(-1062.000000, -126.000000)" fill="#BFC5D2">
            <g id="Group-13" transform="translate(1033.000000, 110.000000)">
                <g id="Group-11" transform="translate(29.000000, 14.000000)">
                    <path d="M1.27272727,7.09090909 L1.27272727,4.54545455 L2.54545455,4.54545455 L2.54545455,5.81818182 L3.81818182,5.81818182 L3.81818182,4.54545455 L6.36363636,4.54545455 L6.36363636,5.81818182 L7.63636364,5.81818182 L7.63636364,4.54545455 L10.1818182,4.54545455 L10.1818182,5.81818182 L11.4545455,5.81818182 L11.4545455,4.54545455 L12.7272727,4.54545455 L12.7272727,7.09090909 L1.27272727,7.09090909 Z M1.27272727,14.7272727 L12.7272727,14.7272727 L12.7272727,8.36363636 L1.27272727,8.36363636 L1.27272727,14.7272727 Z M11.4545455,3.27272727 L11.4545455,2 L10.1818182,2 L10.1818182,3.27272727 L7.63636364,3.27272727 L7.63636364,2 L6.36363636,2 L6.36363636,3.27272727 L3.81818182,3.27272727 L3.81818182,2 L2.54545455,2 L2.54545455,3.27272727 L0,3.27272727 L0,16 L14,16 L14,3.27272727 L11.4545455,3.27272727 Z" id="🎨-Icon-color"></path>
                </g>
            </g>
        </g>
    </g>
</svg>