<?xml version="1.0" encoding="UTF-8"?>
<svg width="20px" height="20px" viewBox="0 0 20 20" version="1.1" xmlns="http://www.w3.org/2000/svg" xmlns:xlink="http://www.w3.org/1999/xlink">
    <!-- Generator: Sketch 55.2 (78181) - https://sketchapp.com -->
    <title>Icon</title>
    <desc>Created with Sketch.</desc>
    <defs>
        <path d="M1.09999925,11.3000031 L7.89999884,11.3000031 C8.34182665,11.3000031 8.69999886,11.6581753 8.69999886,12.1000031 L8.69999886,18.9000027 C8.69999886,19.3418305 8.34182665,19.7000027 7.89999884,19.7000027 L1.09999925,19.7000027 C0.658171443,19.7000027 0.299999237,19.3418305 0.299999237,18.9000027 L0.299999237,12.1000031 C0.299999237,11.6581753 0.658171443,11.3000031 1.09999925,11.3000031 Z M1.09999925,0.300003052 L7.89999884,0.300003052 C8.34182665,0.300003052 8.69999886,0.658175257 8.69999886,1.10000306 L8.69999886,7.90000266 C8.69999886,8.34183046 8.34182665,8.70000267 7.89999884,8.70000267 L1.09999925,8.70000267 C0.658171443,8.70000267 0.299999237,8.34183046 0.299999237,7.90000266 L0.299999237,1.10000306 C0.299999237,0.658175257 0.658171443,0.300003052 1.09999925,0.300003052 Z M12.0999992,0.300003052 L18.8999988,0.300003052 C19.3418267,0.300003052 19.6999989,0.658175257 19.6999989,1.10000306 L19.6999989,7.90000266 C19.6999989,8.34183046 19.3418267,8.70000267 18.8999988,8.70000267 L12.0999992,8.70000267 C11.6581714,8.70000267 11.2999992,8.34183046 11.2999992,7.90000266 L11.2999992,1.10000306 C11.2999992,0.658175257 11.6581714,0.300003052 12.0999992,0.300003052 Z M12.0999992,11.3000031 L18.8999988,11.3000031 C19.3418267,11.3000031 19.6999989,11.6581753 19.6999989,12.1000031 L19.6999989,18.9000027 C19.6999989,19.3418305 19.3418267,19.7000027 18.8999988,19.7000027 L12.0999992,19.7000027 C11.6581714,19.7000027 11.2999992,19.3418305 11.2999992,18.9000027 L11.2999992,12.1000031 C11.2999992,11.6581753 11.6581714,11.3000031 12.0999992,11.3000031 Z M12.75,12.75 L12.75,18.25 L18.25,18.25 L18.25,12.75 L12.75,12.75 Z M12.75,1.75 L12.75,7.25 L18.25,7.25 L18.25,1.75 L12.75,1.75 Z M1.75,1.75 L1.75,7.25 L7.25,7.25 L7.25,1.75 L1.75,1.75 Z M1.75,12.75 L1.75,18.25 L7.25,18.25 L7.25,12.75 L1.75,12.75 Z" id="path-1"></path>
    </defs>
    <g id="Page-1" stroke="none" stroke-width="1" fill="none" fill-rule="evenodd">
        <g id="Production-order" transform="translate(-30.000000, -201.000000)">
            <g id="Component/Navigation/Left-Bar">
                <g id="Group" transform="translate(0.000000, 201.000000)">
                    <g id="Nav/Menu/List-">
                        <g id="Icon" transform="translate(30.000000, 0.000000)">
                            <mask id="mask-2" fill="white">
                                <use xlink:href="#path-1"></use>
                            </mask>
                            <use id="Combined-Shape" fill="#BFC5D2" xlink:href="#path-1"></use>
                        </g>
                    </g>
                </g>
            </g>
        </g>
    </g>
</svg>