<?xml version="1.0" encoding="UTF-8"?>
<svg width="25px" height="26px" viewBox="0 0 25 26" version="1.1" xmlns="http://www.w3.org/2000/svg" xmlns:xlink="http://www.w3.org/1999/xlink">
    <!-- Generator: Sketch 55.2 (78181) - https://sketchapp.com -->
    <title>Microsoft excel</title>
    <desc>Created with Sketch.</desc>
    <g id="Page-1" stroke="none" stroke-width="1" fill="none" fill-rule="evenodd" opacity="0.699999988">
        <g id="Production-order" transform="translate(-1351.000000, -119.000000)" fill="#000000" fill-rule="nonzero">
            <g id="Group-14" transform="translate(1338.000000, 110.000000)">
                <g id="Microsoft-excel" transform="translate(13.000000, 9.000000)">
                    <path d="M14.7321429,0.510204082 C14.7210461,0.514660359 14.7103013,0.519947472 14.7,0.526020408 L0.414285714,3.23673469 C0.170456564,3.28336601 -0.00441897974,3.49872998 -8.18919168e-05,3.74693878 L-8.18919168e-05,22.7836735 C-0.0043745916,23.032042 0.170763476,23.247464 0.414795918,23.2938776 L14.7005102,26.0045918 C14.8479592,26.0321429 15.0015306,25.9943878 15.1188776,25.8989796 C15.2341837,25.8030612 15.3040816,25.6617347 15.3061224,25.5102041 L15.3061224,22.9591837 L23.9795918,22.9591837 C24.5377551,22.9591837 25,22.4969388 25,21.9387755 L25,4.59183673 C25,4.03367347 24.5377551,3.57142857 23.9795918,3.57142857 L15.3061224,3.57142857 L15.3061224,1.02040816 C15.306608,0.873502045 15.2439969,0.733458 15.1341973,0.635858354 C15.0243977,0.538258708 14.8779789,0.492498361 14.7321429,0.510204082 Z M14.2857143,1.62653061 L14.2857143,3.84183673 C14.217909,3.98292236 14.217909,4.14717969 14.2857143,4.28826531 L14.2857143,22.3530612 C14.2717778,22.4214056 14.2717778,22.4918597 14.2857143,22.5602041 L14.2857143,24.9035714 L1.02040816,22.3693878 L1.02040816,4.16122449 L14.2857143,1.62653061 Z M15.3061224,4.59183673 L23.9795918,4.59183673 L23.9795918,21.9387755 L15.3061224,21.9387755 L15.3061224,19.3877551 L17.3469388,19.3877551 L17.3469388,18.3673469 L15.3061224,18.3673469 L15.3061224,15.3061224 L17.3469388,15.3061224 L17.3469388,14.2857143 L15.3061224,14.2857143 L15.3061224,11.7346939 L17.3469388,11.7346939 L17.3469388,10.7142857 L15.3061224,10.7142857 L15.3061224,8.16326531 L17.3469388,8.16326531 L17.3469388,7.14285714 L15.3061224,7.14285714 L15.3061224,4.59183673 Z M18.3673469,7.14285714 L18.3673469,8.16326531 L22.4489796,8.16326531 L22.4489796,7.14285714 L18.3673469,7.14285714 Z M3.41173469,8.51428571 L6.20255102,13.2811224 L3.15663265,18.0484694 L5.70765306,18.0484694 L7.36581633,14.9714286 C7.48163265,14.6744898 7.55765306,14.4469388 7.58928571,14.3015306 L7.60510204,14.3015306 C7.67142857,14.6127551 7.73469388,14.8239796 7.79642857,14.9392857 L9.45459184,18.0484694 L11.9897959,18.0484694 L9.05612245,13.2331633 L11.9102041,8.51377551 L9.51836735,8.51377551 L8.00408163,11.3362245 C7.8912708,11.6134876 7.7901612,11.895369 7.70102041,12.1811224 L7.68520408,12.1811224 C7.61383453,11.9020303 7.51770509,11.6298628 7.39795918,11.3678571 L6.02653061,8.51428571 L3.41173469,8.51428571 Z M18.3673469,10.7142857 L18.3673469,11.7346939 L22.4489796,11.7346939 L22.4489796,10.7142857 L18.3673469,10.7142857 Z M18.3673469,14.2857143 L18.3673469,15.3061224 L22.4489796,15.3061224 L22.4489796,14.2857143 L18.3673469,14.2857143 Z M18.3673469,18.3673469 L18.3673469,19.3877551 L22.4489796,19.3877551 L22.4489796,18.3673469 L18.3673469,18.3673469 Z" id="surface1"></path>
                </g>
            </g>
        </g>
    </g>
</svg>