<?xml version="1.0" encoding="UTF-8"?>
<svg width="32px" height="32px" viewBox="0 0 32 32" version="1.1" xmlns="http://www.w3.org/2000/svg" xmlns:xlink="http://www.w3.org/1999/xlink">
    <!-- Generator: Sketch 55.2 (78181) - https://sketchapp.com -->
    <title>noun_User_2712460</title>
    <desc>Created with Sketch.</desc>
    <g id="Page-1" stroke="none" stroke-width="1" fill="none" fill-rule="evenodd">
        <g id="DC-wise-van-list" transform="translate(-1350.000000, -25.000000)" fill="#BFC5D2" fill-rule="nonzero">
            <g id="noun_User_2712460" transform="translate(1350.000000, 25.000000)">
                <g id="Group">
                    <path d="M13.8738255,14.990604 L18.1261745,14.990604 C19.7583893,14.990604 21.2187919,15.6348993 22.2926174,16.7087248 C23.366443,17.7825503 24.0107383,19.242953 24.0107383,20.8751678 L24.0107383,22.8080537 L24.0107383,23.495302 L23.366443,23.495302 L8.63355705,23.495302 L7.98926174,23.495302 L7.98926174,22.8080537 L7.98926174,20.8751678 C7.98926174,19.242953 8.63355705,17.7825503 9.70738255,16.7087248 C10.7812081,15.6348993 12.2416107,14.990604 13.8738255,14.990604 Z M18.1261745,16.2791946 L13.8738255,16.2791946 C12.6281879,16.2791946 11.4684564,16.7946309 10.652349,17.6536913 C9.79328859,18.4697987 9.27785235,19.6295302 9.27785235,20.8751678 L9.27785235,22.1637584 L22.6791946,22.1637584 L22.6791946,20.8751678 C22.6791946,19.6295302 22.1637584,18.4697987 21.347651,17.6536913 C20.5315436,16.7946309 19.3718121,16.2791946 18.1261745,16.2791946 Z" id="Shape"></path>
                    <path d="M15.9785235,5.92751678 C17.1812081,5.92751678 18.2120805,6.4 18.9852349,7.13020134 C19.7583893,7.9033557 20.2308725,8.97718121 20.2308725,10.1369128 C20.2308725,11.2966443 19.7583893,12.3704698 18.9852349,13.1436242 L18.9852349,13.1436242 C18.2120805,13.9167785 17.1812081,14.3892617 15.9785235,14.3892617 C14.8187919,14.3892617 13.7879195,13.9167785 13.0147651,13.1436242 L13.0147651,13.1436242 L13.0147651,13.1436242 C12.2416107,12.3704698 11.7691275,11.2966443 11.7691275,10.1369128 C11.7691275,8.97718121 12.2416107,7.9033557 13.0147651,7.13020134 L13.0147651,7.13020134 C13.7879195,6.4 14.8187919,5.92751678 15.9785235,5.92751678 Z M18.0402685,8.07516779 C17.5248322,7.55973154 16.7946309,7.21610738 15.9785235,7.21610738 C15.2053691,7.21610738 14.4322148,7.55973154 13.9167785,8.07516779 L13.9167785,8.07516779 C13.4013423,8.59060403 13.0577181,9.32080537 13.0577181,10.1369128 C13.0577181,10.9530201 13.4013423,11.6832215 13.9167785,12.1986577 L13.9167785,12.1986577 C14.4322148,12.757047 15.2053691,13.0577181 15.9785235,13.0577181 C16.7946309,13.0577181 17.5248322,12.757047 18.0402685,12.1986577 L18.0832215,12.1986577 C18.5986577,11.6832215 18.8993289,10.9530201 18.8993289,10.1369128 C18.8993289,9.32080537 18.5986577,8.59060403 18.0402685,8.07516779 Z" id="Shape"></path>
                    <path d="M15.9785235,0 C20.4026846,0 24.3973154,1.80402685 27.3181208,4.68187919 C30.1959732,7.55973154 32,11.5543624 32,15.9785235 C32,20.4026846 30.1959732,24.3973154 27.3181208,27.3181208 C24.3973154,30.1959732 20.4026846,32 15.9785235,32 C11.5543624,32 7.55973154,30.1959732 4.68187919,27.3181208 C1.80402685,24.3973154 0,20.4026846 0,15.9785235 C0,11.5543624 1.80402685,7.55973154 4.68187919,4.68187919 C7.55973154,1.80402685 11.5543624,0 15.9785235,0 Z M26.2013423,5.7557047 C23.6241611,3.13557047 19.9731544,1.54630872 15.9785235,1.54630872 C11.9838926,1.54630872 8.37583893,3.13557047 5.7557047,5.7557047 C3.13557047,8.37583893 1.54630872,11.9838926 1.54630872,15.9785235 C1.54630872,19.9731544 3.13557047,23.6241611 5.7557047,26.2013423 C8.37583893,28.8214765 11.9838926,30.4536913 15.9785235,30.4536913 C19.9731544,30.4536913 23.6241611,28.8214765 26.2013423,26.2013423 C28.8214765,23.6241611 30.4536913,19.9731544 30.4536913,15.9785235 C30.4536913,11.9838926 28.8214765,8.37583893 26.2013423,5.7557047 Z" id="Shape"></path>
                </g>
            </g>
        </g>
    </g>
</svg>